<?xml version="1.0" encoding="UTF-8"?>
<svg id="Livello_2" data-name="Livello 2" xmlns="http://www.w3.org/2000/svg" viewBox="0 0 261.24 223.88">
  <defs>
    <style>
      .cls-1 {
        fill: #00528a;
      }

      .cls-2, .cls-3, .cls-4 {
        fill: #01305a;
      }

      .cls-5 {
        fill: #fff;
      }

      .cls-6 {
        fill: #ffc0ad;
      }

      .cls-7 {
        fill: #ff7972;
      }

      .cls-8 {
        fill: #fda084;
      }

      .cls-9 {
        fill: #cce1f7;
      }

      .cls-10 {
        fill: #a94bff;
      }

      .cls-11 {
        fill: #3b73ab;
      }

      .cls-12 {
        fill: #791bdd;
      }

      .cls-3 {
        opacity: .2;
      }

      .cls-3, .cls-13, .cls-4 {
        isolation: isolate;
      }

      .cls-13 {
        fill: #e2e2e2;
        opacity: .25;
      }

      .cls-4 {
        opacity: .1;
      }
    </style>
  </defs>
  <g id="Livello_2-2" data-name="Livello 2">
    <g id="Livello_1-2" data-name="Livello 1-2">
      <g id="BACKGROUND">
        <g id="OBJECTS">
          <g>
            <path class="cls-13" d="m119,50.63c-8.73-31.64-48.02-41.84-70.58-18.2-.34.34-.62.68-.96,1.02-32.32,35.09-17.07,121.61,50.34,143.55,67.41,21.94,137.54-18.14,141.45-53.92s-27.16-47.06-75.4-37.02c-27.21,5.73-39.4-15.7-44.85-35.43Z"/>
            <path class="cls-9" d="m145.99,41.95l.96-4.76-4.48-.85c0-1.19-.23-2.38-.57-3.52l3.69-2.49-2.72-4.03-3.52,2.38c-1.08-1.08-2.27-1.87-3.63-2.44l.91-4.48-4.76-.96-.91,4.59c-.96.06-1.93.23-2.89.57l-2.49-3.69-4.03,2.72,2.38,3.52c-1.08,1.08-1.87,2.27-2.44,3.63l-3.91-.79-.96,4.76,4.03.79c.06,1.25.34,2.49.85,3.69l-3.52,2.38,2.72,4.03,3.69-2.49c1.08.91,2.27,1.59,3.57,2.04l-.91,4.48,4.76.96.96-4.88c1.08-.11,2.1-.4,3.12-.79l2.38,3.52,4.03-2.72-2.49-3.69c.68-.74,1.19-1.59,1.64-2.49l4.54,1.02h0Zm-12.02-1.87c-2.04,1.36-4.82.85-6.18-1.19s-.85-4.82,1.19-6.18,4.82-.85,6.18,1.19.85,4.82-1.19,6.18Z"/>
            <path class="cls-9" d="m118.95,20.01l.51-2.61-2.44-.45c0-.62-.11-1.3-.34-1.93l2.04-1.36-1.47-2.21-1.93,1.3c-.57-.57-1.25-1.02-1.98-1.3l.45-2.44-2.61-.51-.51,2.49c-.51.06-1.08.11-1.59.28l-1.36-2.04-2.21,1.47,1.3,1.93c-.57.57-1.02,1.25-1.3,1.98l-2.15-.4-.51,2.61,2.21.45c.06.68.17,1.36.45,2.04l-1.93,1.3,1.47,2.21,2.04-1.36c.57.51,1.25.91,1.93,1.13l-.51,2.44,2.61.51.51-2.66c.57-.06,1.13-.23,1.7-.45l1.3,1.93,2.21-1.47-1.36-2.04c.34-.4.68-.85.91-1.36l2.55.51h0Zm-6.52-1.02c-1.13.74-2.61.45-3.4-.68-.74-1.13-.45-2.61.68-3.4,1.13-.74,2.61-.45,3.4.68.74,1.13.4,2.61-.68,3.4Z"/>
            <path class="cls-9" d="m250.25,33.34l.51-2.61-2.44-.45c0-.62-.11-1.3-.34-1.93l2.04-1.36-1.47-2.21-1.93,1.3c-.57-.57-1.25-1.02-1.98-1.3l.45-2.44-2.61-.51-.51,2.49c-.51.06-1.08.11-1.59.28l-1.36-2.04-2.21,1.47,1.3,1.93c-.57.57-1.02,1.25-1.3,1.98l-2.15-.4-.51,2.61,2.21.45c.06.68.17,1.36.45,2.04l-1.93,1.3,1.47,2.21,2.04-1.36c.57.51,1.25.91,1.93,1.13l-.51,2.44,2.61.51.51-2.66c.57-.06,1.13-.23,1.7-.45l1.3,1.93,2.21-1.47-1.36-2.04c.34-.4.68-.85.91-1.36l2.55.51h0Zm-6.58-1.02c-1.13.74-2.61.45-3.4-.68-.74-1.13-.45-2.61.68-3.4,1.13-.74,2.61-.45,3.4.68.74,1.13.45,2.66-.68,3.4Z"/>
            <path class="cls-9" d="m27.04,65.82l.51-2.61-2.44-.51c0-.62-.11-1.3-.34-1.93l2.04-1.36-1.47-2.21-1.93,1.3c-.57-.57-1.25-1.02-1.98-1.3l.45-2.44-2.61-.51-.51,2.49c-.51.06-1.08.11-1.59.28l-1.36-2.04-2.21,1.47,1.3,1.93c-.57.57-1.02,1.25-1.3,1.98l-2.15-.4-.51,2.61,2.21.45c.06.68.17,1.36.45,2.04l-1.93,1.3,1.47,2.21,2.04-1.36c.57.51,1.25.91,1.93,1.13l-.51,2.44,2.61.51.51-2.66c.57-.06,1.13-.23,1.7-.45l1.3,1.93,2.21-1.47-1.36-2.04c.34-.4.68-.85.91-1.36,0,0,2.55.57,2.55.57Zm-6.52-1.08c-1.13.74-2.61.45-3.4-.68-.74-1.13-.45-2.61.68-3.4,1.13-.74,2.61-.45,3.4.68.74,1.13.4,2.66-.68,3.4Z"/>
          </g>
          <path class="cls-13" d="m129.26,195.65c-43.26,0-81.07-1.87-101.6-4.71-2.15-.28-2.83,2.83-.74,3.4,14,3.97,33.85,4.25,46.49,5.61,21.83,2.32,53.58,1.7,55.79,9.3s2.44,15.65-19.79,14.51c-24.15-1.25-20.13-14.51-20.13-14.51-22.39.62-75.69-4.59-81.58-13.66-5.84-8.96,4.88-11.06,5.1-11.06h0c9.01-4.54,57.72-8.05,116.39-8.05,65.14,0,117.92,4.25,117.92,9.58.06,5.27-52.78,9.58-117.87,9.58h0Z"/>
          <g>
            <g>
              <path class="cls-11" d="m48.47,167.93c-5.22-5.22-16.55-17.52-23.7-31.41-10.26-20.01-20.52-18.2-22.56-11.11-5.22,18.26,25.51,38.16,38.27,45.47l7.99-2.95Z"/>
              <path class="cls-1" d="m45.64,168.95c-8.96-6.69-16.5-14.63-21.66-20.64-6.86-7.99-11-14.34-11.06-14.4-.17-.23-.45-.28-.68-.17-.23.17-.28.45-.17.68.06.06,4.2,6.46,11.11,14.51,5.1,5.9,12.53,13.72,21.32,20.41l1.13-.4Z"/>
            </g>
            <g>
              <path class="cls-1" d="m47.17,160.9c-2.38-4.82-6.97-14.85-8.67-25.12-2.55-15.31-9.64-16.33-12.47-12.08-7.77,11.57,10.83,32.94,16.72,39.23l4.42-2.04h0Z"/>
              <path class="cls-2" d="m45.47,161.69c-4.54-6.35-7.82-13.21-9.98-18.26-2.83-6.75-4.2-11.79-4.25-11.79-.06-.17-.23-.28-.4-.23s-.28.23-.23.4c0,.06,1.42,5.16,4.25,11.91,2.15,5.05,5.44,11.96,9.98,18.31l.62-.34Z"/>
            </g>
            <g>
              <path class="cls-11" d="m217.37,90.26c4.76-5.61,15.19-18.71,21.26-33.11,8.73-20.69,19.11-19.67,21.66-12.81,6.58,17.8-22.56,39.91-34.75,48.19l-8.16-2.27h0Z"/>
              <path class="cls-1" d="m220.2,91.05c8.45-7.37,15.36-15.87,20.07-22.22,6.24-8.5,9.92-15.14,9.92-15.19.11-.23.45-.34.68-.17.23.11.34.45.17.68-.06.06-3.74,6.75-9.98,15.31-4.59,6.29-11.45,14.63-19.73,21.94l-1.13-.34h0Z"/>
            </g>
            <g>
              <path class="cls-1" d="m218.1,83.11c2.04-4.99,5.84-15.31,6.75-25.68,1.36-15.48,8.39-17.01,11.57-12.98,8.56,11-8.33,33.62-13.72,40.37l-4.59-1.7h0Z"/>
              <path class="cls-2" d="m219.86,83.79c4.03-6.63,6.86-13.78,8.56-18.99,2.32-6.92,3.34-12.08,3.34-12.08.06-.17.23-.28.4-.28.17.06.28.23.28.4,0,.06-1.02,5.22-3.34,12.19-1.76,5.22-4.54,12.3-8.56,18.99l-.68-.23Z"/>
            </g>
            <path class="cls-1" d="m72,31.64c.91-8.33.17-16.44-3.97-14.46s-2.72,15.87,2.95,25l1.19,3.57c-4.03-6.75-12.02-12.47-15.31-10.32-3.29,2.1,2.38,5.44,8.11,7.6,4.31,1.64,6.8,3.74,7.94,4.88l5.56,16.89c-6.35-10.66-18.99-19.67-24.21-16.27-5.16,3.34,3.8,8.62,12.81,12.08,6.8,2.61,10.72,5.84,12.53,7.71l1.13,3.34c.62-.11,1.25-.23,1.81-.34l-6.58-19.96c.45-1.7,1.3-4.08,3.06-6.8,3.29-5.1,5.84-11.17,1.98-10.94-3.34.23-6.07,7.2-6.24,14.12l-2.27-6.92c-.4-2.32-.91-5.56-.51-9.18Z"/>
            <path class="cls-11" d="m245.37,130.79c2.27-8.11,5.9-15.36,9.01-11.96,3.12,3.4-3.34,15.76-11.96,22.17l-2.44,2.89c6.24-4.76,15.76-7.14,18.03-3.97s-4.25,4.2-10.32,4.08c-4.65-.06-7.65.96-9.18,1.64l-11.4,13.61c9.86-7.54,24.95-11.23,28.52-6.18s-6.75,6.63-16.38,6.46c-7.31-.11-12.13,1.47-14.51,2.55l-2.27,2.72c-.51-.34-1.08-.62-1.59-.96l13.61-16.21c.23-1.76.28-4.31-.34-7.48-1.13-5.95-1.3-12.53,2.21-10.89,3.06,1.42,3,8.9.62,15.42l4.71-5.61c1.02-1.93,2.72-4.76,3.69-8.28h0Z"/>
            <g>
              <path class="cls-1" d="m56.18,118.15h9.35c-5.05-.85-17.52-6.18-18.65-16.95-1.42-13.61-6.29-13.44-14.46-14.91s-10.43.91-15.65-9.69c-5.22-10.6-16.78-11.91-16.78-11.91,0,0,10.55,11.51,8.56,20.3-2.04,8.73,4.99,12.25,10.6,13.38,5.61,1.08,4.25,8.62,6.41,13.49.96,2.21,4.93,4.48,9.01,6.35h21.6v-.06Z"/>
              <path class="cls-2" d="m35.94,104.71c.4,4.08,2.78,8.96,6.29,12.98.11.17.23.28.4.45h1.08c-.28-.34-.57-.62-.85-.96-3.34-3.86-5.73-8.67-6.07-12.53-.62-6.18-5.39-10.38-15.42-13.61-5.84-1.87-7.71-9.01-7.71-9.07-.06-.23-.28-.34-.45-.28-.23.06-.34.28-.28.45.06.28,1.98,7.6,8.22,9.64,9.64,3.12,14.23,7.14,14.8,12.93Z"/>
            </g>
            <g>
              <path class="cls-11" d="m51.37,118.15h19.62v-.06c.57-1.98.85-3.97.91-6.01.23-6.86.34-24.1-4.08-28.52-5.56-5.56-16.78-7.71-15.31-16.1,1.47-8.39.4-19.96-12.87-21.83s-23.53-22.73-23.53-22.73c0,0-4.37,16.78,7.54,29.65,11.91,12.87,7.48,14.74,5.05,26.87s-5.22,18.77,12.93,28.01c4.99,2.55,7.99,6.41,9.75,10.72Z"/>
              <path class="cls-1" d="m41.27,66.56c-.85,15.7,2.38,24.55,10.6,28.74,5.16,2.61,10.6,8.45,14.17,15.19,1.13,2.15,2.27,4.71,3.17,7.65h1.19c-.91-3.17-2.15-5.95-3.34-8.22-3.74-7.09-9.24-12.93-14.68-15.65-7.77-3.91-10.83-12.42-9.98-27.61.57-9.75-8.62-16.27-8.96-16.55-.28-.17-.62-.11-.79.17s-.11.62.11.79c.11,0,9.01,6.35,8.5,15.48Z"/>
            </g>
            <g>
              <path class="cls-1" d="m165.83,87.03h9.52l9.69-6.29c2.38-3.74,4.48-7.82,4.08-10.21-.85-5.22-6.12-10.77-1.98-14.8,4.08-3.97,8.05-10.72,1.59-16.95-6.46-6.24-3.91-21.66-3.91-21.66,0,0-8.96,7.43-7.54,19.16,1.42,11.68-1.76,11-7.82,16.67-6.07,5.67-10.26,8.16-3.97,20.35,2.32,4.48,1.87,9.47.34,13.72h0Z"/>
              <path class="cls-2" d="m176.49,70.3c1.87,3.63,2.55,9.01,1.81,14.29,0,.17-.06.4-.11.57l-.91.57c.06-.45.17-.85.23-1.25.74-5.1.06-10.38-1.76-13.83-2.83-5.5-1.13-11.62,5.5-19.84,3.86-4.76,1.53-11.74,1.47-11.79-.06-.23.06-.4.23-.51.23-.06.45.06.51.23.11.28,2.49,7.43-1.64,12.59-6.29,7.94-7.99,13.78-5.33,18.99Z"/>
            </g>
            <g>
              <path class="cls-11" d="m201.78,87.03c1.13-.91,2.38-1.76,3.8-2.49,18.14-9.24,15.31-15.93,12.93-28.01-2.38-12.13-6.86-14,5.05-26.87s7.54-29.65,7.54-29.65c0,0-10.32,20.81-23.58,22.73-13.27,1.87-14.34,13.49-12.87,21.83,1.47,8.39-9.69,10.55-15.31,16.1-4.03,4.03-4.31,18.65-4.14,26.42h26.59v-.06Z"/>
              <path class="cls-1" d="m181.48,87.03c3.57-6.52,8.84-12.13,13.89-14.68,8.22-4.14,11.51-12.98,10.6-28.74-.51-9.13,8.39-15.48,8.5-15.53.28-.17.34-.57.11-.79-.17-.28-.57-.34-.79-.17-.4.28-9.52,6.8-8.96,16.55.85,15.19-2.21,23.7-9.98,27.61-5.44,2.78-10.94,8.62-14.68,15.65v.06h1.3v.06h0Z"/>
            </g>
          </g>
          <g>
            <g>
              <path class="cls-2" d="m225.47,64.06v102.56c0,4.25-3.4,7.65-7.65,7.65H43.03c-4.25,0-7.65-3.4-7.65-7.65v-102.56c0-4.25,3.4-7.65,7.65-7.65h174.79c4.25,0,7.65,3.4,7.65,7.65h0Z"/>
              <path class="cls-5" d="m217.03,69.28v92.13c0,2.72-2.21,4.93-4.93,4.93H48.7c-1.13,0-2.21-.4-3.06-1.08-.23-.17-.45-.34-.62-.57-.79-.85-1.25-2.04-1.25-3.29v-92.13c0-2.72,2.21-4.93,4.93-4.93h163.39c.91,0,1.76.23,2.49.68.68.4,1.25.96,1.7,1.64.45.74.74,1.64.74,2.61Z"/>
              <g>
                <path class="cls-10" d="m103.24,133.4h-6.69v8.67h-16.44v-8.62h-26.14v-10.77l21.37-30.96h17.41l-18.99,28.57h6.86v-7.71h15.93v7.71h6.69v13.1h0Z"/>
                <path class="cls-10" d="m105.62,116.85c0-16.72,9.52-26.36,22.85-26.36s22.85,9.64,22.85,26.36-9.52,26.36-22.85,26.36-22.85-9.64-22.85-26.36h0Zm28.57,0c0-9.69-2.44-12.76-5.78-12.76s-5.78,3-5.78,12.76,2.44,12.76,5.78,12.76,5.78-3,5.78-12.76Z"/>
                <path class="cls-10" d="m204.27,133.4h-6.69v8.67h-16.5v-8.62h-26.14v-10.77l21.37-30.96h17.41l-18.99,28.57h6.86v-7.71h15.99v7.71h6.69v13.1h0Z"/>
              </g>
            </g>
            <path class="cls-2" d="m243.22,170.2v.68c0,3.29-1.02,6.29-2.83,8.73-2.72,3.74-7.14,6.18-12.08,6.18H32.54c-4.99,0-9.41-2.44-12.08-6.18-1.76-2.44-2.83-5.5-2.83-8.73v-.68h225.59Z"/>
            <path class="cls-2" d="m105.11,170.2v.17c0,1.19.79,2.15,1.76,2.15h46.04c.96,0,1.76-.96,1.76-2.15v-.17h-49.55Z"/>
            <g>
              <path class="cls-3" d="m217.03,69.28v5.44H43.82v-5.44c0-1.02.34-2.04.91-2.83.91-1.25,2.38-2.1,4.03-2.1h163.39c1.64,0,3.12.85,4.03,2.1.51.79.85,1.76.85,2.83h0Z"/>
              <path class="cls-5" d="m175.19,71.15h-91.85c-.23,0-.45-.17-.45-.45v-1.87c0-.23.17-.45.45-.45h91.85c.23,0,.45.17.45.45v1.87c0,.28-.23.45-.45.45Z"/>
              <path class="cls-2" d="m60.78,69.79v1.02c0,.28-.34.45-.57.34l-.91-.51-.91-.51c-.23-.17-.23-.51,0-.68l.91-.51.91-.51c.23-.17.57.06.57.34v1.02Z"/>
              <path class="cls-2" d="m65.31,69.79v1.02c0,.28.34.45.57.34l.91-.51.91-.51c.23-.17.23-.51,0-.68l-.91-.51-.91-.51c-.23-.17-.57.06-.57.34v1.02Z"/>
            </g>
            <path class="cls-3" d="m216.12,66.45H44.68c.91-1.25,2.38-2.1,4.03-2.1h163.39c1.7,0,3.17.85,4.03,2.1Z"/>
            <path class="cls-4" d="m181.59,158.46h-104.66c-2.04,0-3.69-1.64-3.69-3.69h0c0-2.04,1.64-3.69,3.69-3.69h104.66c2.04,0,3.69,1.64,3.69,3.69h0c0,1.98-1.64,3.69-3.69,3.69Z"/>
          </g>
          <g>
            <g>
              <path class="cls-6" d="m195.82,140.77c-.79,1.53-1.59,2.89-2.32,4.03-5.61,8.5-9.81,6.69-12.02,4.08-.79-.91-1.36-1.93-1.76-2.83-.68-1.47-.91-2.78-.96-3.34l1.02.23c1.25.57,3.29,1.36,4.82,1.13.17-.06.4-.06.57-.17,1.36-.51,3.23-3.17,4.48-5.22.79-1.36,1.36-2.38,1.36-2.38l4.82,4.48h0Z"/>
              <path class="cls-8" d="m195.82,140.77c-.79,1.53-1.59,2.89-2.32,4.03-1.59-1.76-3.06-4.31-3.91-6.07.79-1.36,1.36-2.38,1.36-2.38l4.88,4.42h0Z"/>
              <path class="cls-8" d="m185.73,144.34s-1.13,3.46-6.07,1.7c-.68-1.47-.91-2.78-.96-3.34l1.02.23c1.25.57,3.29,1.36,4.82,1.13l1.19.28h0Z"/>
            </g>
            <g>
              <path class="cls-6" d="m231.82,153.25c-1.13,6.52-6.46,1.76-6.92-3.34-.11-1.13-.11-2.32-.11-3.46s.06-2.1.17-3c0-.17.06-.34.06-.51.17-2.21.45-3.8.45-3.8l3.46-4.25s.4,1.19.91,3.06c.45,1.7,1.08,3.97,1.47,6.35.11.74.23,1.42.34,2.15.4,2.38.51,4.82.17,6.8h0Z"/>
              <path class="cls-8" d="m229.9,137.88c-1.02,1.87-2.72,4.42-4.93,5.56,0-.17.06-.34.06-.51.17-2.21.45-3.8.45-3.8l3.46-4.25c0-.06.45,1.13.96,3h0Z"/>
              <path class="cls-8" d="m231.71,146.39c-1.25.74-5.39.4-6.92.06,0-1.25.11-2.44.17-3.52l6.35,1.3c.17.68.28,1.42.4,2.15Z"/>
            </g>
            <path class="cls-11" d="m195.14,124.5s-5.05,8.9-5.84,11.91c0,0,3.46,5.73,6.58,6.41l1.13-3.91c-.06-.06.11-12.3-1.87-14.4h0Z"/>
            <g>
              <path class="cls-11" d="m206.2,119.91l-11.06,4.59,4.88,37.87s15.19,2.15,23.07,0v-37.87l-10.77-4.82-6.12.23h0Z"/>
              <g>
                <path class="cls-1" d="m203.93,140.55c1.87,1.93,4.48,3.74,8.11,4.82.11.06.28-.06.28-.23h0c0-.11-.06-.23-.17-.23-3.52-1.02-6.07-2.78-7.88-4.65-.11-.11-.4-.06-.4.11h0c0,.06,0,.11.06.17h0Z"/>
                <path class="cls-1" d="m203.99,136.97h0c0,.06,0,.11.06.11.11.23.28.45.4.68.85,1.25,2.55,2.89,5.44,3.69h.06c.11,0,.17-.06.23-.17s-.06-.23-.17-.28c-3.12-.85-4.76-2.72-5.61-4.14-.06-.23-.4-.11-.4.11h0Z"/>
                <path class="cls-1" d="m204.38,127.11h0c0,.11.11.23.28.23,2.66-.51,4.71-1.7,6.07-2.72,1.93-1.36,2.89-2.72,2.95-2.78.06-.11.06-.23-.06-.28s-.23-.06-.28.06c-.06.06-3.23,4.25-8.79,5.33-.06-.06-.17.06-.17.17h0Z"/>
              </g>
            </g>
            <g>
              <g>
                <path class="cls-6" d="m187.43,186.47l1.19-6.12h-4.03l-.96,5.78c-.06,0,1.59,1.08,3.8.34h0Z"/>
                <path class="cls-1" d="m184.65,186.41s-.91-1.19-1.59-1.13c-.68.06-6.07,4.42-7.94,4.82s-1.47,1.76-1.13,2.44c.34.68,14.85-.45,14.85-.45,0,0,.34-4.31-.11-5.61-.57-1.3-2.61.28-4.08-.06Z"/>
                <g>
                  <path class="cls-5" d="m181.71,189.47h.23c.11-.06.17-.23.11-.34,0-.06-.62-1.02-1.36-1.42-1.02-.51-1.81.06-1.87.11-.11.11-.11.23-.06.34.11.11.23.11.34.06,0,0,.57-.4,1.3-.06.62.28,1.13,1.19,1.13,1.19.06.06.06.11.17.11h0Z"/>
                  <path class="cls-5" d="m182.44,188.74h.23c.11-.06.17-.23.11-.34,0-.06-.62-1.02-1.36-1.42-1.02-.51-1.81.06-1.87.11-.11.11-.11.23-.06.34.11.11.23.11.34.06,0,0,.57-.4,1.3-.06.62.28,1.13,1.19,1.13,1.19.06.06.11.11.17.11h0Z"/>
                  <path class="cls-5" d="m180.63,190.1h.23c.11-.06.17-.23.11-.34,0-.06-.62-1.02-1.36-1.42-1.02-.51-1.81.06-1.87.11-.11.11-.11.23-.06.34.11.11.23.11.34.06,0,0,.57-.4,1.3-.06.62.28,1.13,1.19,1.13,1.19.06.06.11.11.17.11h0Z"/>
                </g>
              </g>
              <path class="cls-10" d="m205.8,158.57s-6.92-17.24-11.23-16.55c-6.69,1.08-11.11,21.54-10.6,40.65l4.59.28s5.1-18.03,6.07-22.73c0,0,3.52,12.25,11.51,10.55,5.84-1.25,1.98-7.26-.34-12.19Z"/>
              <path class="cls-12" d="m188,182.16l-.57-.11c0-.06,1.25-6.75,2.72-13.55,3-13.83,4.14-14.46,4.54-14.68.28-.17.57-.11.74-.06.74.34,1.13,1.93,1.7,4.37.91,3.97,2.21,9.35,5.73,11.62l-.28.45c-3.69-2.38-4.99-7.94-5.95-11.96-.45-1.93-.91-3.8-1.36-3.97-.06,0-.11-.06-.23.06-1.64.91-5.1,17.18-7.03,27.84Z"/>
              <polygon class="cls-12" points="183.52 181.31 189.13 181.76 189.25 181.76 188.96 183.63 183.41 183.24 183.52 181.31"/>
            </g>
            <g>
              <path class="cls-10" d="m204.04,170.88s8.05,1.53,18.77-.4c-.91-4.42-2.89-7.88-6.12-10.94l-14.4,1.02c-.96,3.4-.28,6.86,1.76,10.32h0Z"/>
              <g>
                <path class="cls-1" d="m201.72,185.11s-1.93-.4-2.44-.4c-.51.06-3.86,4.08-4.99,4.37-2.1.51-1.98,3.86-.68,3.97,3.8.28,10.15-1.59,10.15-1.59,0,0,.4-4.31.06-5.61-.28-1.3-1.02-.34-2.1-.74h0Z"/>
                <path class="cls-6" d="m202.85,185.39l1.42-5.5h-4.03l-.91,5.27c-.06.06,1.3.96,3.52.23h0Z"/>
                <g>
                  <path class="cls-5" d="m198.77,188.91c.06,0,.11,0,.23-.06.11-.11.11-.23.06-.34-.06-.06-.74-.96-1.53-1.25-1.08-.4-1.81.28-1.81.28-.11.11-.11.28,0,.34.11.11.28.11.34,0,0,0,.51-.45,1.3-.17.68.23,1.25,1.08,1.25,1.08.06.06.11.11.17.11h0Z"/>
                  <path class="cls-5" d="m199.45,188.11c.06,0,.11,0,.23-.06.11-.11.11-.23.06-.34-.06-.06-.74-.96-1.53-1.25-1.08-.4-1.81.28-1.81.28-.11.11-.11.28,0,.34.11.11.28.11.34,0,0,0,.51-.45,1.3-.17.68.23,1.25,1.08,1.25,1.08.06.06.11.11.17.11h0Z"/>
                  <path class="cls-5" d="m197.81,189.64c.06,0,.11,0,.23-.06.11-.11.11-.23.06-.34-.06-.06-.74-.96-1.53-1.25-1.08-.4-1.81.28-1.81.28-.11.11-.11.28,0,.34.11.11.28.11.34,0,0,0,.51-.45,1.3-.17.68.23,1.25,1.08,1.25,1.08.06.06.11.11.17.11h0Z"/>
                </g>
              </g>
              <path class="cls-10" d="m221.79,170.76c-1.02.23-1.98.23-2.83,0-.28-.06-.57-.11-.85-.23-5.39-1.93-7.82-10.32-7.82-10.32-.91,4.71-6.24,22.73-6.24,22.73l-.85-.11-.57-.06-3.12-.4c-.62-18.54,4.08-39.29,10.72-40.31,4.31-.68,11.23,16.55,11.23,16.55,2.38,4.88,6.24,10.89.34,12.13h0Z"/>
              <path class="cls-12" d="m218.95,170.82c-.28-.06-.57-.11-.85-.23-1.98-3.17-3-7.6-3.8-11.17-.68-2.83-1.25-5.5-2.1-5.95-.11-.06-.23-.06-.4-.06-.68.23-2.32,2.49-5.44,15.31-1.47,6.12-2.72,12.19-3.12,14.12-.06.4-.11.62-.11.62l-.57-.11s.06-.23.11-.57c.4-1.87,1.64-7.99,3.12-14.17,3.69-15.02,5.27-15.53,5.84-15.7.28-.11.57-.06.85.06,1.02.57,1.59,3,2.38,6.35.85,3.74,1.93,8.39,4.08,11.51h0Z"/>
              <polygon class="cls-12" points="199.17 181.08 204.72 182.05 204.84 182.1 204.33 183.92 198.88 183.01 199.17 181.08"/>
            </g>
            <path class="cls-11" d="m223.09,124.5l7.14,10.38s-3.17,6.01-6.29,6.63c0,0-3.23-5.67-3.63-8.56-.34-2.89,1.64-8.22,2.78-8.45Z"/>
            <g>
              <path class="cls-2" d="m202.57,108.4c0,4.03,2.49,6.8,6.52,6.8s6.86-3,6.86-7.03-2.38-7.09-6.41-7.09c-4.88.06-6.97,3.29-6.97,7.31h0Z"/>
              <path class="cls-2" d="m202.8,106.19s-3-2.95-1.87-4.37,2.61-.06,3.06-1.42.62-3.06,2.44-2.38c1.81.68,1.93,1.87,3.63.85,1.76-1.02,1.36.68,2.89,1.47,1.53.74,2.61.62,2.32,2.1-.23,1.47,1.47,1.76.74,3.4-.68,1.64-1.53.79-1.53.79l-11.68-.45h0Z"/>
              <g>
                <path class="cls-8" d="m203.48,110.16s-1.13-1.47-1.93-.28c-.85,1.25.34,4.88,2.38,3.97l-.45-3.69h0Z"/>
                <path class="cls-7" d="m203.42,112.77c-.06,0-.17-.06-.17-.11-.34-1.13-1.47-1.59-1.47-1.59-.11-.06-.11-.11-.11-.23.06-.11.11-.11.23-.11.06,0,1.36.51,1.7,1.81.06.11,0,.17-.17.23t0,0Z"/>
                <path class="cls-7" d="m202.23,112.2h-.11c-.06-.06-.11-.17-.06-.23,0,0,.23-.34.62-.51.11-.06.17,0,.23.11s0,.17-.11.23c-.34.17-.51.4-.51.4.06-.06,0,0-.06,0h0Z"/>
              </g>
              <g>
                <path class="cls-8" d="m214.99,110.16s1.13-1.47,1.93-.28c.85,1.25-.34,4.88-2.38,3.97l.45-3.69h0Z"/>
                <path class="cls-7" d="m214.99,112.77c.06,0,.17-.06.17-.11.34-1.13,1.47-1.59,1.47-1.59.11-.06.11-.11.11-.23-.06-.11-.11-.11-.23-.11-.06,0-1.36.51-1.7,1.81,0,.11.06.17.17.23h0Z"/>
                <path class="cls-7" d="m216.18,112.2h.11c.06-.06.11-.17.06-.23,0,0-.23-.34-.62-.51-.11-.06-.17,0-.23.11s0,.17.11.23c.34.17.51.4.51.4-.06-.06,0,0,.06,0h0Z"/>
              </g>
              <path class="cls-6" d="m211.98,116.96v3.63s-1.08,1.87-2.55,1.98-2.78-1.59-2.78-1.59v-3.74l5.33-.28h0Z"/>
              <path class="cls-8" d="m211.98,116.96v1.59c-.96,1.08-2.72,1.36-5.33.96v-2.32l5.33-.23Z"/>
              <path class="cls-6" d="m202.85,110.04c.06.79.17,1.59.28,2.38.51,2.66,1.59,5.33,3.97,6.12,5.33,1.93,7.26-2.66,7.99-5.33.06-.28.17-.62.23-.96.11-.62.23-1.36.28-2.04.11-.85.17-1.76.17-2.49.06-1.64-.91-3.12-2.44-3.69-2.21-.85-5.5-1.53-8.67.28-1.19.68-1.87,1.87-1.93,3.23.06.62.06,1.53.11,2.49h0Z"/>
              <path class="cls-2" d="m202.85,110.04c.06.79.17,1.59.28,2.38.51,2.66,1.59,5.33,3.97,6.12,5.33,1.93,7.26-2.66,7.99-5.33.06-.28.17-.62.23-.96.11-.62.23-1.36.28-2.04h-.79c-.17.51-1.02,3.52-1.3,3.97-.62-1.47-3.69-.51-3.69-.51h0c-.17.06-.4.11-.57.11-.23,0-.4-.06-.57-.11,0,0-3.06-1.02-3.69.4-.28-.45-1.3-3.52-1.47-3.86l-.68-.17Zm6.41,4.25c3.52-.45,2.95,1.42,2.95,1.42-.4.34-.74.62-.96.74-.74.4-1.53.57-2.04.57s-.68.11-2.04-.62c-.23-.11-.45-.34-.74-.57h0c-.11-.34-.68-2.1,2.83-1.53Z"/>
              <path class="cls-2" d="m206.94,110.61c0,.4-.23.68-.45.68s-.45-.34-.45-.68.23-.68.45-.68.45.28.45.68Z"/>
              <path class="cls-2" d="m212.21,110.61c0,.4-.23.68-.45.68s-.45-.34-.45-.68c0-.4.23-.68.45-.68s.45.28.45.68Z"/>
              <path class="cls-2" d="m204.55,108.91s1.47-1.13,2.89-.91l.06.74s-1.93.34-2.72,1.02c-.17-.28-.23-.57-.23-.85h0Z"/>
              <path class="cls-2" d="m213.68,108.91s-1.47-1.13-2.89-.91l-.06.74s1.93.34,2.72,1.02c.17-.28.23-.57.23-.85h0Z"/>
              <path class="cls-8" d="m209.26,113.33c.28,0,.57-.11.62-.11.11-.06.11-.11.11-.23-.06-.11-.11-.11-.23-.11-.17.06-.51.17-.68.06-.06,0-.06-.06-.06-.17-.06-.62.11-2.61.11-2.66,0-.11-.06-.17-.17-.17s-.17.06-.17.17c0,.06-.17,2.04-.11,2.72,0,.23.17.34.23.4.11.11.23.11.34.11h0Z"/>
              <path class="cls-5" d="m209.03,114.58c-1.3,0-1.36,1.93-.06,1.98h.34c1.3-.06,1.25-1.98-.06-1.98h-.23Z"/>
              <path class="cls-2" d="m215.61,110.16h-.79c.11-.79.23-2.15-.45-2.38-2.04-.62.62-2.04-.34-2.78-.91-.74-3.23-.4-4.82-.45s-4.2-.06-4.82.11-.28,1.19-.06,1.98-.79,1.7-.91,2.55c-.06.23-.06.57,0,.96h-.62c-.06-1.02-.11-1.93-.06-2.72,0-1.36.74-2.55,1.93-3.23,3.17-1.81,6.46-1.13,8.67-.28,1.53.57,2.49,2.1,2.44,3.69,0,.85-.06,1.7-.17,2.55h0Z"/>
            </g>
            <g>
              <path class="cls-1" d="m251.21,170.48c-.96,3.8-3.69,6.63-7.82,8.28-1.08.45-2.15.74-3.06.91l.11-.11c.62-.91,1.19-1.87,1.64-2.89,2.72-1.02,5.84-2.95,6.86-6.8.96-3.69-.57-9.24-3.91-14.12-2.61-3.86-8.62-10.49-19.05-11.79-9.13-1.13-15.02.28-20.24,1.47-4.42,1.02-8.62,2.04-13.78,1.13-3.74-.68-6.63-1.64-9.18-2.44-4.71-1.53-7.82-2.55-12.7-.57-8.28,3.4-12.02,17.52-12.02,17.63l-2.32-.62c.17-.62,4.03-15.42,13.49-19.28,5.73-2.38,9.58-1.08,14.4.51,2.49.79,5.27,1.76,8.84,2.38,4.65.79,8.45-.06,12.81-1.08,5.44-1.25,11.57-2.72,21.09-1.53,4.48.57,8.62,2.1,12.36,4.54,3.23,2.15,6.18,4.99,8.39,8.28,3.57,5.56,5.22,11.68,4.08,16.1h0Z"/>
              <path class="cls-10" d="m135.1,183.46l5.39-17.07c2.32-7.26,10.09-11.28,17.35-9.01h0c7.26,2.32,11.28,10.09,9.01,17.35l-5.39,17.07c-11-3.46-15.42-4.82-26.36-8.33h0Z"/>
            </g>
            <path class="cls-6" d="m177.51,142.98s.45-1.08,1.42-2.55c.45-.74,1.59-1.08,1.7-.23.11.68-.4,1.25-.51,1.93,0,0,.23-.4.79-1.42.51-.91,1.19-.85,1.25-.17.11.62-.11.62-.28,1.13-.23.68-.51,1.47-.51,1.47,0,0,.23-.96,1.02-2.04.34-.51.74-1.08,1.3-.28.28.4-.11,1.42-.4,2.55,0,0,.57-1.53,1.36-1.87.62-.28.91-.06.68.79-.28,1.08-.51,1.36-.74,1.98s-1.08,1.53-1.7,1.36c-.68-.23-.79-.68-1.25-.68-.45-.06-1.19,0-1.47-.28s-.62-.34-1.13-.34c-.57,0-1.59-.68-1.53-1.36h0Z"/>
            <path class="cls-6" d="m224.28,144.06s.28-1.13,1.02-2.72c.34-.79,1.25-1.36,1.53-.51.23.68-.06,1.3-.06,1.98,0,0,.17-.4.57-1.47.34-.96,1.02-1.02,1.25-.34.17.62,0,.62-.06,1.13-.11.68-.28,1.53-.28,1.53,0,0,.11-.96.74-2.15.28-.57.57-1.13,1.25-.45.34.34.11,1.42,0,2.61,0,0,.11-1.36.85-1.87.57-.4,1.08-.4,1.02.51-.11,1.13-.28,1.42-.4,2.1s-.79,1.7-1.47,1.59-.91-.57-1.36-.51-1.13.17-1.47-.06-.68-.23-1.19-.17c-.74-.06-1.87-.51-1.93-1.19h0Z"/>
            <g>
              <g>
                <path class="cls-1" d="m132.38,199.96c0,.45-.17.91-.51,1.19-.28.28-.74.51-1.19.51h-6.75v-3.4h6.75c.96,0,1.7.79,1.7,1.7Z"/>
                <path class="cls-1" d="m132.38,212.09c0,.45-.17.91-.51,1.19-.28.28-.74.51-1.19.51h-6.75v-3.4h6.75c.96,0,1.7.74,1.7,1.7Z"/>
                <rect class="cls-2" x="123.93" y="198.26" width="3.06" height="3.4"/>
                <rect class="cls-2" x="123.93" y="210.39" width="3.06" height="3.4"/>
              </g>
              <path class="cls-1" d="m97.06,204.04l-.11,2.66c-28.06-.96-49.83-3.06-64.75-6.07-12.76-2.61-20.69-5.95-24.38-10.26-1.87-2.21-2.66-4.71-2.32-7.48.57-4.65,4.71-8.05,12.25-10.21.11.91.28,1.81.57,2.66-5.1,1.47-9.64,3.91-10.15,7.88-.23,1.98.34,3.74,1.7,5.39,3.23,3.8,10.94,6.92,22.9,9.41,14.74,3,36.34,5.05,64.29,6.01h0Z"/>
              <path class="cls-10" d="m123.93,219.86h-17.92c-7.65,0-13.83-6.18-13.83-13.83h0c0-7.65,6.18-13.83,13.83-13.83h17.92v27.67Z"/>
            </g>
          </g>
        </g>
      </g>
    </g>
  </g>
</svg>